<?xml version="1.0" encoding="UTF-8" standalone="no"?>
<!-- Created with Inkscape (http://www.inkscape.org/) -->

<svg
   version="1.0"
   id="svg2"
   width="32"
   height="32"
   xml:space="preserve"
   sodipodi:docname="sofa_python.svg"
   inkscape:export-filename="python.svg"
   inkscape:export-xdpi="5.1199999"
   inkscape:export-ydpi="5.1199999"
   xmlns:inkscape="http://www.inkscape.org/namespaces/inkscape"
   xmlns:sodipodi="http://sodipodi.sourceforge.net/DTD/sodipodi-0.dtd"
   xmlns:xlink="http://www.w3.org/1999/xlink"
   xmlns="http://www.w3.org/2000/svg"
   xmlns:svg="http://www.w3.org/2000/svg"
   xmlns:rdf="http://www.w3.org/1999/02/22-rdf-syntax-ns#"
   xmlns:cc="http://creativecommons.org/ns#"
   xmlns:dc="http://purl.org/dc/elements/1.1/"><sodipodi:namedview
     id="namedview964"
     pagecolor="#ffffff"
     bordercolor="#111111"
     borderopacity="1"
     inkscape:showpageshadow="0"
     inkscape:pageopacity="0"
     inkscape:pagecheckerboard="1"
     inkscape:deskcolor="#d1d1d1"
     showgrid="false" /><metadata
     id="metadata371"><rdf:RDF><cc:Work
         rdf:about=""><dc:format>image/svg+xml</dc:format><dc:type
           rdf:resource="http://purl.org/dc/dcmitype/StillImage" /></cc:Work></rdf:RDF></metadata><defs
     id="defs4"><linearGradient
       id="linearGradient4671"><stop
         style="stop-color:#ffd43b;stop-opacity:1;"
         offset="0"
         id="stop4673" /><stop
         style="stop-color:#ffe873;stop-opacity:1"
         offset="1"
         id="stop4675" /></linearGradient><linearGradient
       id="linearGradient4689"><stop
         style="stop-color:#5a9fd4;stop-opacity:1;"
         offset="0"
         id="stop4691" /><stop
         style="stop-color:#306998;stop-opacity:1;"
         offset="1"
         id="stop4693" /></linearGradient><linearGradient
       xlink:href="#linearGradient4671"
       id="linearGradient1475"
       gradientUnits="userSpaceOnUse"
       gradientTransform="matrix(1.3952415,0,0,1.4087117,252.07474,254.88282)"
       x1="150.96111"
       y1="192.35176"
       x2="112.03144"
       y2="137.27299" /><linearGradient
       xlink:href="#linearGradient4689"
       id="linearGradient1478"
       gradientUnits="userSpaceOnUse"
       gradientTransform="matrix(1.3952415,0,0,1.4087117,250.55593,253.36401)"
       x1="26.648937"
       y1="20.603781"
       x2="135.66525"
       y2="114.39767" /></defs><g
     id="g640"
     transform="matrix(1.0890383,0,0,1.0890383,-24.73758,-10.604632)"><g
       id="g433"
       transform="matrix(0.08984237,0,0,0.08984237,-0.8974448,-13.531127)"><path
         style="fill:url(#linearGradient1478);fill-opacity:1;stroke-width:2.48025"
         d="m 423.94985,282.39105 c -11.36859,0.0528 -22.22535,1.02242 -31.77818,2.71277 -28.14145,4.97166 -33.25083,15.37779 -33.25083,34.56847 v 25.34504 h 66.50166 v 8.44834 h -66.50166 -24.95749 c -19.32725,0 -36.25072,11.61679 -41.54417,33.71587 -6.10593,25.33071 -6.37676,41.13745 0,67.58677 4.72718,19.68784 16.0163,33.71588 35.34354,33.71588 h 22.86479 v -30.38304 c 0,-21.94995 18.99161,-41.31164 41.54416,-41.31164 h 66.42415 c 18.49013,0 33.25083,-15.22416 33.25083,-33.79339 v -63.32383 c 0,-18.02233 -15.20388,-31.56061 -33.25083,-34.56847 -11.424,-1.90165 -23.27738,-2.76559 -34.64597,-2.71277 z m -35.9636,20.38455 c 6.86918,0 12.47874,5.70122 12.47874,12.71127 0,6.98522 -5.60956,12.63377 -12.47874,12.63377 -6.8938,0 -12.47875,-5.64855 -12.47875,-12.63377 0,-7.01005 5.58495,-12.71127 12.47875,-12.71127 z"
         id="path1948" /><path
         style="fill:url(#linearGradient1475);fill-opacity:1;stroke-width:2.48025"
         d="m 501.65879,354.98448 v 29.53045 c 0,22.89458 -19.41018,42.16423 -41.54416,42.16423 h -66.42415 c -18.19468,0 -33.25083,15.57219 -33.25083,33.79339 v 63.3238 c 0,18.02233 15.67168,28.62286 33.25083,33.79339 21.05068,6.18973 41.23721,7.30837 66.42415,0 16.74205,-4.84738 33.25083,-14.60274 33.25083,-33.79339 V 498.45134 H 426.94131 V 490.003 h 66.42415 33.25083 c 19.32723,0 26.52935,-13.48117 33.25079,-33.71588 6.94304,-20.8313 6.64762,-40.864 0,-67.58677 -4.7764,-19.24037 -13.89898,-33.71587 -33.25079,-33.71587 z m -37.35874,160.36355 c 6.8938,0 12.47874,5.64855 12.47874,12.63375 0,7.01005 -5.58496,12.71127 -12.47874,12.71127 -6.86918,0 -12.47875,-5.70122 -12.47875,-12.71127 0,-6.9852 5.60957,-12.63375 12.47875,-12.63375 z"
         id="path1950" /></g></g></svg>
