<?xml version="1.0" encoding="UTF-8" standalone="no"?>
<!-- Created with Inkscape (http://www.inkscape.org/) -->

<svg
   version="1.1"
   id="svg2"
   width="32"
   height="32"
   viewBox="0 0 32 32"
   sodipodi:docname="sofa_node_1.svg"
   xml:space="preserve"
   inkscape:version="1.2 (dc2aedaf03, 2022-05-15)"
   inkscape:export-filename="../sofa_node.svg"
   inkscape:export-xdpi="96"
   inkscape:export-ydpi="96"
   xmlns:inkscape="http://www.inkscape.org/namespaces/inkscape"
   xmlns:sodipodi="http://sodipodi.sourceforge.net/DTD/sodipodi-0.dtd"
   xmlns="http://www.w3.org/2000/svg"
   xmlns:svg="http://www.w3.org/2000/svg"><sodipodi:namedview
     id="namedview6"
     pagecolor="#ffffff"
     bordercolor="#111111"
     borderopacity="1"
     inkscape:showpageshadow="0"
     inkscape:pageopacity="0"
     inkscape:pagecheckerboard="1"
     inkscape:deskcolor="#d1d1d1"
     showgrid="false"
     inkscape:zoom="2.0641722"
     inkscape:cx="110.4559"
     inkscape:cy="99.555646"
     inkscape:window-width="1920"
     inkscape:window-height="956"
     inkscape:window-x="0"
     inkscape:window-y="27"
     inkscape:window-maximized="1"
     inkscape:current-layer="svg2" /><defs
     id="defs6" /><g
     id="g227"
     transform="matrix(0.16542238,0,0,0.16542238,0.72955611,-0.41836713)"><path
       style="fill:#e84e1c;fill-opacity:1;stroke-width:0.32"
       d="m 50.674208,149.72668 c -6.186182,-0.78349 -11.029171,-7.06232 -10.065027,-13.04911 0.171622,-1.06569 0.60072,-2.59021 0.953545,-3.38784 0.903156,-2.04173 3.575751,-4.74633 5.737172,-5.80588 1.569772,-0.76951 2.216204,-0.8944 4.700102,-0.90804 1.649626,-0.009 3.522819,0.18168 4.384682,0.44646 1.311846,0.40303 1.617996,0.40303 2.388899,0 1.904473,-0.99566 7.860637,-5.12466 10.862547,-7.53026 C 73.959846,116.02717 80.32,109.81879 80.32,109.06309 c 0,-0.33472 -0.271382,-1.14285 -0.603072,-1.79584 -0.33169,-0.65299 -0.94241,-2.33925 -1.357158,-3.74725 -0.984311,-3.34159 -1.073248,-10.109622 -0.171805,-13.074397 0.313449,-1.030915 0.510429,-1.933875 0.437728,-2.006576 C 78.380304,88.193638 71.529494,84.112419 70.4,83.538752 60.47,78.495331 57.005526,77.008707 49.249568,74.462989 46.362307,73.515312 42.914294,72.48016 41.587322,72.162653 L 39.174643,71.58537 36.947322,73.05608 C 29.2959,78.108355 19.649291,77.044374 13.119649,70.427987 9.5175763,66.778064 7.68,62.316605 7.68,57.22104 c 0,-5.236438 1.8310688,-9.528173 5.723116,-13.414077 6.654703,-6.644198 16.132394,-7.50192 24.036884,-2.175315 5.092438,3.431645 8.013117,8.956413 8.185507,15.483728 l 0.08439,3.195376 1.705049,1.231626 C 53.893424,66.222026 65.81208,72.610922 73.92,75.750189 c 3.282685,1.271008 9.371334,3.29015 9.910026,3.286403 C 84.09951,79.034672 84.824,78.512813 85.44,77.8768 c 3.707354,-3.827789 9.124214,-6.596541 14.71061,-7.519114 l 2.25925,-0.373107 0.50322,-1.792291 c 0.27678,-0.985757 0.77248,-2.728288 1.10156,-3.872288 1.47634,-5.132211 3.16445,-16.980093 3.17904,-22.311782 0.006,-2.258397 -0.0163,-2.323495 -0.97442,-2.818941 -1.63765,-0.846864 -4.57931,-4.102295 -5.66254,-6.266541 -3.590957,-7.17459 -0.34746,-16.003087 7.19125,-19.573917 2.05567,-0.973702 2.37007,-1.028819 5.86863,-1.028819 3.62336,0 3.74446,0.02366 6.11257,1.194043 9.18474,4.539341 11.30221,15.830558 4.34775,23.18388 -1.77446,1.876227 -6.03396,4.262077 -7.60916,4.262077 -1.01444,0 -0.98335,-0.06996 -2.36574,5.323702 C 112.3773,53.012995 111.04,62.605514 111.04,68.247686 v 2.665885 l 1.68,0.583907 c 1.87126,0.650384 5.24774,2.423248 6.96,3.654445 0.616,0.442931 2.08458,1.739728 3.26352,2.881767 l 2.14352,2.076435 1.85648,-0.417527 c 6.4957,-1.460899 13.41221,-3.847216 19.46219,-6.714796 5.6257,-2.66648 8.30023,-4.309936 9.03185,-5.549936 0.79695,-1.350736 3.25732,-2.993303 4.89908,-3.270679 2.91944,-0.493235 5.81869,0.892909 7.50336,3.587383 0.81378,1.301558 0.96,1.85607 0.96,3.640524 0,1.784688 -0.1474,2.343517 -0.96846,3.67154 -1.75154,2.833056 -5.38318,4.309811 -8.26212,3.359676 -2.44796,-0.807897 -15.24602,1.768138 -23.06449,4.642496 -3.27745,1.204909 -7.01546,2.767744 -7.37713,3.08432 -0.19999,0.175056 -0.12151,0.816624 0.21837,1.785072 1.23041,3.505984 1.78803,8.367911 1.33706,11.658084 l -0.19677,1.435598 -2.60323,0.74803 c -5.10436,1.46671 -9.8869,4.19138 -12.63515,7.1984 -2.96797,3.24743 -4.49481,6.86475 -5.01966,11.89231 l -0.20676,1.98062 -1.81083,0.25938 c -2.53345,0.36289 -7.21112,0.25653 -9.49083,-0.2158 -3.970675,-0.82268 -8.271754,-2.95394 -11.67209,-5.78373 -1.044931,-0.8696 -2.068569,-1.58109 -2.274752,-1.58109 -0.461203,0 -4.094947,2.66954 -7.325267,5.38152 -3.269629,2.74499 -9.583449,9.01224 -11.777145,11.69028 l -1.795402,2.19181 0.08609,2.74963 c 0.112583,3.59582 -0.708188,5.82456 -3.104608,8.43037 -2.741356,2.98089 -6.216947,4.26532 -10.182614,3.76307 z"
       id="path589" /><path
       style="display:inline;fill:#3c3c3c;fill-opacity:1;stroke-width:0.32"
       d="m 137.70203,185.91133 c -2.97208,-0.31283 -9.0106,-2.03632 -11.4621,-3.27147 -5.60213,-2.82255 -9.73746,-6.96063 -12.56967,-12.57808 l -0.97726,-1.9383 5.69934,-2.93775 5.69933,-2.93776 1.31219,2.20873 c 2.45462,4.13175 6.5616,6.96739 12.39805,8.56016 2.81708,0.76878 3.69349,0.85985 8.11801,0.84357 4.40992,-0.0162 5.2794,-0.11298 7.84,-0.87238 5.08476,-1.50799 7.9178,-3.81834 8.9518,-7.30016 1.05936,-3.56728 0.35026,-7.05521 -1.88974,-9.29521 -2.73782,-2.73782 -7.01793,-4.1967 -15.70206,-5.35204 -5.8591,-0.7795 -5.81432,-0.77117 -10.55999,-1.96464 -13.30261,-3.3454 -19.43587,-11.10866 -18.36362,-23.24399 1.02374,-11.58631 14.15391,-19.78917 30.68361,-19.16908 5.75571,0.21591 8.53725,0.65043 12.16941,1.90105 4.45502,1.53395 7.39606,3.22781 10.22474,5.88883 2.60881,2.45418 5.42995,6.34613 4.93386,6.80658 -0.15841,0.14703 -2.56181,1.43357 -5.3409,2.85899 l -5.05289,2.59167 -1.82711,-1.85953 c -2.09962,-2.13689 -4.88414,-3.78466 -8.54711,-5.05784 -2.41719,-0.84017 -2.8724,-0.89019 -8.16,-0.89669 -3.70503,-0.005 -6.07378,0.13478 -7.00012,0.41175 -3.76261,1.125 -6.49981,3.10084 -7.78464,5.61932 -0.8553,1.67651 -0.95613,5.64024 -0.18055,7.09708 1.9729,3.70584 7.4965,5.62597 20.21102,7.02581 2.70386,0.29769 9.21945,1.93348 12.08402,3.03379 5.77117,2.21676 10.29841,6.06248 12.34086,10.48309 1.83597,3.97372 2.43507,9.09913 1.66589,14.25196 -0.4509,3.02059 -2.59092,7.46349 -4.75951,9.88124 -4.33875,4.83722 -11.96481,8.41047 -19.68666,9.22434 -3.31708,0.34961 -11.08927,0.34261 -14.4682,-0.0131 z"
       id="path170" /></g></svg>
