<?xml version="1.0" encoding="UTF-8" standalone="no"?>
<!-- Created with Inkscape (http://www.inkscape.org/) -->

<svg
   version="1.0"
   id="svg2"
   width="600"
   height="600"
   xml:space="preserve"
   sodipodi:docname="sofa_python.svg"
   inkscape:export-filename="sofa_python_icon.png"
   inkscape:export-xdpi="5.1199999"
   inkscape:export-ydpi="5.1199999"
   xmlns:inkscape="http://www.inkscape.org/namespaces/inkscape"
   xmlns:sodipodi="http://sodipodi.sourceforge.net/DTD/sodipodi-0.dtd"
   xmlns:xlink="http://www.w3.org/1999/xlink"
   xmlns="http://www.w3.org/2000/svg"
   xmlns:svg="http://www.w3.org/2000/svg"
   xmlns:rdf="http://www.w3.org/1999/02/22-rdf-syntax-ns#"
   xmlns:cc="http://creativecommons.org/ns#"
   xmlns:dc="http://purl.org/dc/elements/1.1/"><sodipodi:namedview
     id="namedview964"
     pagecolor="#ffffff"
     bordercolor="#111111"
     borderopacity="1"
     inkscape:showpageshadow="0"
     inkscape:pageopacity="0"
     inkscape:pagecheckerboard="1"
     inkscape:deskcolor="#d1d1d1"
     showgrid="false" /><metadata
     id="metadata371"><rdf:RDF><cc:Work
         rdf:about=""><dc:format>image/svg+xml</dc:format><dc:type
           rdf:resource="http://purl.org/dc/dcmitype/StillImage" /></cc:Work></rdf:RDF></metadata><defs
     id="defs4"><linearGradient
       id="linearGradient4671"><stop
         style="stop-color:#ffd43b;stop-opacity:1;"
         offset="0"
         id="stop4673" /><stop
         style="stop-color:#ffe873;stop-opacity:1"
         offset="1"
         id="stop4675" /></linearGradient><linearGradient
       id="linearGradient4689"><stop
         style="stop-color:#5a9fd4;stop-opacity:1;"
         offset="0"
         id="stop4691" /><stop
         style="stop-color:#306998;stop-opacity:1;"
         offset="1"
         id="stop4693" /></linearGradient><linearGradient
       xlink:href="#linearGradient4671"
       id="linearGradient1475"
       gradientUnits="userSpaceOnUse"
       gradientTransform="matrix(1.3952415,0,0,1.4087117,252.07474,254.88282)"
       x1="150.96111"
       y1="192.35176"
       x2="112.03144"
       y2="137.27299" /><linearGradient
       xlink:href="#linearGradient4689"
       id="linearGradient1478"
       gradientUnits="userSpaceOnUse"
       gradientTransform="matrix(1.3952415,0,0,1.4087117,250.55593,253.36401)"
       x1="26.648937"
       y1="20.603781"
       x2="135.66525"
       y2="114.39767" /></defs><g
     id="g640"
     transform="matrix(1.0890383,0,0,1.0890383,-24.73758,-10.604632)"><g
       id="g433"
       transform="matrix(1.2091564,0,0,1.2091564,-160.32605,-142.40139)"><path
         style="fill:url(#linearGradient1478);fill-opacity:1;stroke-width:2.48025"
         d="m 423.94985,282.39105 c -11.36859,0.0528 -22.22535,1.02242 -31.77818,2.71277 -28.14145,4.97166 -33.25083,15.37779 -33.25083,34.56847 v 25.34504 h 66.50166 v 8.44834 h -66.50166 -24.95749 c -19.32725,0 -36.25072,11.61679 -41.54417,33.71587 -6.10593,25.33071 -6.37676,41.13745 0,67.58677 4.72718,19.68784 16.0163,33.71588 35.34354,33.71588 h 22.86479 v -30.38304 c 0,-21.94995 18.99161,-41.31164 41.54416,-41.31164 h 66.42415 c 18.49013,0 33.25083,-15.22416 33.25083,-33.79339 v -63.32383 c 0,-18.02233 -15.20388,-31.56061 -33.25083,-34.56847 -11.424,-1.90165 -23.27738,-2.76559 -34.64597,-2.71277 z m -35.9636,20.38455 c 6.86918,0 12.47874,5.70122 12.47874,12.71127 0,6.98522 -5.60956,12.63377 -12.47874,12.63377 -6.8938,0 -12.47875,-5.64855 -12.47875,-12.63377 0,-7.01005 5.58495,-12.71127 12.47875,-12.71127 z"
         id="path1948" /><path
         style="fill:url(#linearGradient1475);fill-opacity:1;stroke-width:2.48025"
         d="m 501.65879,354.98448 v 29.53045 c 0,22.89458 -19.41018,42.16423 -41.54416,42.16423 h -66.42415 c -18.19468,0 -33.25083,15.57219 -33.25083,33.79339 v 63.3238 c 0,18.02233 15.67168,28.62286 33.25083,33.79339 21.05068,6.18973 41.23721,7.30837 66.42415,0 16.74205,-4.84738 33.25083,-14.60274 33.25083,-33.79339 V 498.45134 H 426.94131 V 490.003 h 66.42415 33.25083 c 19.32723,0 26.52935,-13.48117 33.25079,-33.71588 6.94304,-20.8313 6.64762,-40.864 0,-67.58677 -4.7764,-19.24037 -13.89898,-33.71587 -33.25079,-33.71587 z m -37.35874,160.36355 c 6.8938,0 12.47874,5.64855 12.47874,12.63375 0,7.01005 -5.58496,12.71127 -12.47874,12.71127 -6.86918,0 -12.47875,-5.70122 -12.47875,-12.71127 0,-6.9852 5.60957,-12.63375 12.47875,-12.63375 z"
         id="path1950" /></g><path
       style="fill:#e74d1b;stroke:none;stroke-width:0.624689"
       d="m 249.97373,233.59199 c 1.01699,-23.68008 18.00854,-37.39576 39.9801,-42.47885 0.90142,-7.13458 0.54535,-13.57449 -0.87457,-20.61474 -0.43478,-2.15704 -2.61058,-6.49426 -1.18191,-8.43455 2.4263,-3.29648 9.64832,-4.43279 13.30088,-5.8171 12.98291,-4.92132 26.77917,-8.21843 40.60478,-9.65335 8.65944,-0.89892 16.54677,2.81673 21.62799,-7.32947 4.71015,-9.40532 -2.98913,-21.06265 -13.50703,-20.54915 -8.30649,0.40542 -12.66307,8.59885 -19.36536,12.42757 -13.77252,7.86733 -33.1866,17.51191 -49.35044,18.23342 -3.8387,0.1712 -6.7129,-4.56211 -9.37033,-6.78537 -5.53162,-4.6277 -12.80799,-8.96241 -19.99005,-10.19805 0,-12.56625 1.74913,-24.47219 3.57823,-36.856656 0.87456,-5.917684 1.92342,-14.672695 4.90006,-19.897515 1.72539,-3.029434 9.05986,-4.096085 12.13645,-6.006835 8.50015,-5.27874 13.96555,-15.927189 13.01227,-25.94484 -2.88793,-30.346457 -45.49673,-35.7741259 -55.67916,-6.871579 -3.37019,9.566254 -0.79397,19.835829 5.57224,27.477202 2.34132,2.810358 7.84109,5.203795 8.78499,8.781758 0.77711,2.946159 -0.38667,6.348401 -0.42353,9.343342 -0.13939,11.338107 -2.00713,23.410223 -5.00689,34.357893 -0.92766,3.38519 -1.61857,10.28113 -4.18042,12.74178 -3.21277,3.08659 -12.70555,3.42768 -17.05214,5.29487 -6.81785,2.92792 -11.75352,9.93505 -18.1722,12.52188 -4.45278,1.79474 -13.85497,-3.66754 -18.05976,-5.28298 -14.78015,-5.67843 -29.05554,-12.64184 -42.47886,-21.102 -4.05236,-2.55373 -11.29813,-5.63782 -13.72566,-9.91069 -1.68792,-2.9704 -0.42667,-7.79612 -1.027,-11.129465 C 122.54777,91.690734 118.68719,83.824021 112.53969,78.102751 95.633473,62.368709 67.032027,65.999343 55.194599,86.165365 42.55634,107.69589 54.328194,135.96557 78.808919,141.82577 c 8.182488,1.95904 16.772513,0.59659 24.362861,-2.83796 2.89551,-1.30996 5.56193,-4.37719 8.74565,-4.84008 5.13432,-0.74651 12.03777,2.74488 16.86662,4.21977 14.83262,4.53024 28.69821,10.97266 42.47885,18.01044 3.95242,2.01836 14.95943,6.25188 16.64609,10.50539 0.70653,1.78162 -0.53098,4.33159 -0.86581,6.11383 -0.78024,4.1548 -0.88207,8.27463 -0.77836,12.49379 0.11927,4.86819 1.45677,9.76138 2.95477,14.36784 0.65843,2.02274 2.53437,4.69141 2.11644,6.87158 -0.69777,3.64568 -6.29748,7.49127 -8.82872,9.99252 -9.01301,8.90557 -21.20632,20.01754 -33.10853,24.84077 -3.68003,1.49112 -8.05098,-1.28874 -11.86909,-1.48989 -8.66193,-0.45727 -17.76928,5.84335 -21.30127,13.50827 -8.91994,19.35912 12.12834,40.0507 31.29629,30.37426 6.4999,-3.28149 11.44119,-10.04999 12.49067,-17.25579 0.46414,-3.18341 -0.68029,-7.03899 0.58908,-9.99502 4.66579,-10.86147 18.78565,-20.69595 27.52505,-28.19221 3.13594,-2.69055 7.26826,-7.05212 11.2444,-8.38271 3.79874,-1.27061 13.01415,7.82485 16.86661,9.63833 11.30936,5.32485 21.70107,4.77262 33.73321,3.82309 z"
       id="path457" /></g></svg>
