<?xml version="1.0" encoding="UTF-8" standalone="no"?>
<!-- Created with Inkscape (http://www.inkscape.org/) -->

<svg
   version="1.1"
   id="svg2"
   width="32"
   height="32"
   viewBox="0 0 32 32"
   sodipodi:docname="sofa_env_camera.svg"
   xml:space="preserve"
   inkscape:version="1.2 (dc2aedaf03, 2022-05-15)"
   xmlns:inkscape="http://www.inkscape.org/namespaces/inkscape"
   xmlns:sodipodi="http://sodipodi.sourceforge.net/DTD/sodipodi-0.dtd"
   xmlns:xlink="http://www.w3.org/1999/xlink"
   xmlns="http://www.w3.org/2000/svg"
   xmlns:svg="http://www.w3.org/2000/svg"><sodipodi:namedview
     id="namedview6"
     pagecolor="#ffffff"
     bordercolor="#111111"
     borderopacity="1"
     inkscape:showpageshadow="0"
     inkscape:pageopacity="0"
     inkscape:pagecheckerboard="1"
     inkscape:deskcolor="#d1d1d1"
     showgrid="false"
     showguides="true"
     inkscape:zoom="17.412504"
     inkscape:cx="16.941848"
     inkscape:cy="18.061733"
     inkscape:window-width="1920"
     inkscape:window-height="956"
     inkscape:window-x="0"
     inkscape:window-y="0"
     inkscape:window-maximized="1"
     inkscape:current-layer="svg2" /><defs
     id="defs6"><linearGradient
       id="linearGradient4671"><stop
         style="stop-color:#ffd43b;stop-opacity:1;"
         offset="0"
         id="stop4673" /><stop
         style="stop-color:#ffe873;stop-opacity:1"
         offset="1"
         id="stop4675" /></linearGradient><linearGradient
       id="linearGradient4689"><stop
         style="stop-color:#5a9fd4;stop-opacity:1;"
         offset="0"
         id="stop4691" /><stop
         style="stop-color:#306998;stop-opacity:1;"
         offset="1"
         id="stop4693" /></linearGradient><linearGradient
       xlink:href="#linearGradient4671"
       id="linearGradient1475"
       gradientUnits="userSpaceOnUse"
       gradientTransform="matrix(1.3952415,0,0,1.4087117,252.07474,254.88282)"
       x1="150.96111"
       y1="192.35176"
       x2="112.03144"
       y2="137.27299" /><linearGradient
       xlink:href="#linearGradient4689"
       id="linearGradient1478"
       gradientUnits="userSpaceOnUse"
       gradientTransform="matrix(1.3952415,0,0,1.4087117,250.55593,253.36401)"
       x1="26.648937"
       y1="20.603781"
       x2="135.66525"
       y2="114.39767" /></defs><g
     id="g221"
     transform="translate(-0.7728372,0.20571596)"><g
       id="g8"
       transform="translate(0.7728372,-0.20571603)"><path
         style="fill:#e74d1b;stroke:none;stroke-width:0.0349331"
         d="M 11.950965,6.572954 C 11.399226,6.4223142 10.88757,6.2314085 10.309107,6.1917964 8.7383776,6.0842204 7.1475597,6.7098521 6.1386238,7.9353475 4.8010614,9.5599799 4.5991468,11.976234 5.7347273,13.769169 c 0.2906066,0.458807 0.7113093,1.065454 1.2208041,1.292521 v 0.03486 c -0.4738372,0 -1.3838101,-0.178859 -1.7280703,0.216057 C 4.9144853,15.671665 5.0691133,16.46642 5.0691133,16.913079 4.5965997,16.709758 3.573974,16.347199 3.1663749,16.814723 2.9460785,17.06746 3.008027,17.441664 3.008027,17.751456 v 2.235721 1.50211 c 0,0.29421 0.00837,0.582686 0.2808537,0.76389 0.5503471,0.366311 1.3309602,-0.257982 1.7801989,-0.554285 v 6.287953 1.502126 c 0,0.270969 -0.022285,0.548588 0.186147,0.757037 0.2695432,0.269511 0.7252167,0.186147 1.0714375,0.186147 h 2.724791 11.0039059 2.969314 c 0.367989,0 0.890035,0.100035 1.176234,-0.186147 0.344024,-0.344058 0.186163,-1.148147 0.186163,-1.595425 v -4.296779 c 0.249285,0.03972 0.340323,0.361904 0.558959,0.493779 0.805465,0.485851 1.629241,0.944974 2.445278,1.41283 0.351433,0.201462 0.726657,0.481093 1.152807,0.324455 0.63019,-0.231674 0.419193,-1.250916 0.419193,-1.776933 v -4.750904 c 0,-0.471559 0.17735,-1.360219 -0.247776,-1.683768 -0.334877,-0.254848 -0.736963,-0.09517 -1.079682,0.0419 l -2.270659,0.90826 c -0.420701,0.16775 -0.792275,0.278911 -0.803452,0.803471 h -0.174668 v -3.563182 c 0,-0.456542 0.110756,-1.029193 -0.314919,-1.334445 -0.267667,-0.191961 -0.631483,-0.13271 -0.942666,-0.13271 h -1.991193 c 1.291834,-0.61139 2.443115,-1.337896 3.260305,-2.550121 0.678084,-1.00586 1.125061,-2.137168 1.214237,-3.3535801 C 25.838059,6.1203247 24.157878,3.0703257 21.17323,1.9860028 18.174019,0.89638498 14.670711,1.8868052 12.870789,4.5817019 12.482125,5.1636515 12.055021,5.8677884 11.950899,6.5728814 M 18.343644,2.984751 c 3.187954,-0.3763655 6.00189,2.6819272 5.867403,5.7539766 -0.119143,2.7196444 -2.250218,5.0129744 -4.959138,5.3040324 -1.260868,0.135394 -2.56909,-0.172455 -3.633039,-0.870291 -0.310729,-0.203796 -0.608925,-0.434764 -0.873325,-0.696031 -0.212403,-0.209856 -0.416766,-0.479317 -0.733595,-0.517372 -0.710537,-0.08529 -0.927197,0.79536 -1.247849,1.251101 -0.445669,0.633476 -1.149235,1.099556 -1.896136,1.296575 C 8.021305,15.257554 5.4725235,12.246281 6.8071033,9.5771219 7.0110789,9.1691719 7.2780417,8.8047533 7.6191851,8.5002725 8.4973038,7.7164756 9.7442461,7.4601361 10.867965,7.7565401 c 0.584749,0.1541588 1.360367,0.9236623 1.956227,0.5053726 0.343671,-0.2412416 0.35044,-0.6170875 0.434073,-0.9903863 0.09869,-0.4404585 0.252668,-0.8956443 0.469464,-1.2925195 0.980047,-1.7939901 2.622944,-2.7589739 4.615915,-2.9942672 m 0.17467,1.4370952 c -1.115659,0.1464508 -2.113451,0.4809587 -2.893478,1.3475823 -2.053159,2.2810969 -0.965017,5.9995068 1.985215,6.8319318 0.530993,0.149801 1.097426,0.176829 1.641858,0.109756 2.040408,-0.251379 3.658405,-2.083173 3.632417,-4.1470385 -0.02764,-2.1968756 -2.034443,-4.4483487 -4.366012,-4.142226 M 9.4706491,9.9776349 C 7.9242185,10.25646 8.3921907,12.631879 9.9247801,12.355515 11.471229,12.076689 11.003222,9.7012709 9.4706491,9.9776349 M 23.024675,16.528796 V 29.069781 H 6.4314586 V 16.458938 l 16.5932164,0.06987 m -18.6309617,3.900871 -0.011724,0.0233 z"
         id="path170" /></g><g
       id="g640"
       transform="matrix(0.02049195,0,0,0.02049195,10.32111,16.945377)"><g
         id="g433"
         transform="matrix(1.2091564,0,0,1.2091564,-160.32605,-142.40139)"><path
           style="fill:url(#linearGradient1478);fill-opacity:1;stroke-width:2.48025"
           d="m 423.94985,282.39105 c -11.36859,0.0528 -22.22535,1.02242 -31.77818,2.71277 -28.14145,4.97166 -33.25083,15.37779 -33.25083,34.56847 v 25.34504 h 66.50166 v 8.44834 h -66.50166 -24.95749 c -19.32725,0 -36.25072,11.61679 -41.54417,33.71587 -6.10593,25.33071 -6.37676,41.13745 0,67.58677 4.72718,19.68784 16.0163,33.71588 35.34354,33.71588 h 22.86479 v -30.38304 c 0,-21.94995 18.99161,-41.31164 41.54416,-41.31164 h 66.42415 c 18.49013,0 33.25083,-15.22416 33.25083,-33.79339 v -63.32383 c 0,-18.02233 -15.20388,-31.56061 -33.25083,-34.56847 -11.424,-1.90165 -23.27738,-2.76559 -34.64597,-2.71277 z m -35.9636,20.38455 c 6.86918,0 12.47874,5.70122 12.47874,12.71127 0,6.98522 -5.60956,12.63377 -12.47874,12.63377 -6.8938,0 -12.47875,-5.64855 -12.47875,-12.63377 0,-7.01005 5.58495,-12.71127 12.47875,-12.71127 z"
           id="path1948" /><path
           style="fill:url(#linearGradient1475);fill-opacity:1;stroke-width:2.48025"
           d="m 501.65879,354.98448 v 29.53045 c 0,22.89458 -19.41018,42.16423 -41.54416,42.16423 h -66.42415 c -18.19468,0 -33.25083,15.57219 -33.25083,33.79339 v 63.3238 c 0,18.02233 15.67168,28.62286 33.25083,33.79339 21.05068,6.18973 41.23721,7.30837 66.42415,0 16.74205,-4.84738 33.25083,-14.60274 33.25083,-33.79339 V 498.45134 H 426.94131 V 490.003 h 66.42415 33.25083 c 19.32723,0 26.52935,-13.48117 33.25079,-33.71588 6.94304,-20.8313 6.64762,-40.864 0,-67.58677 -4.7764,-19.24037 -13.89898,-33.71587 -33.25079,-33.71587 z m -37.35874,160.36355 c 6.8938,0 12.47874,5.64855 12.47874,12.63375 0,7.01005 -5.58496,12.71127 -12.47874,12.71127 -6.86918,0 -12.47875,-5.70122 -12.47875,-12.71127 0,-6.9852 5.60957,-12.63375 12.47875,-12.63375 z"
           id="path1950" /></g><path
         style="fill:#e74d1b;stroke:none;stroke-width:0.624689"
         d="m 249.97373,233.59199 c 1.01699,-23.68008 18.00854,-37.39576 39.9801,-42.47885 0.90142,-7.13458 0.54535,-13.57449 -0.87457,-20.61474 -0.43478,-2.15704 -2.61058,-6.49426 -1.18191,-8.43455 2.4263,-3.29648 9.64832,-4.43279 13.30088,-5.8171 12.98291,-4.92132 26.77917,-8.21843 40.60478,-9.65335 8.65944,-0.89892 16.54677,2.81673 21.62799,-7.32947 4.71015,-9.40532 -2.98913,-21.06265 -13.50703,-20.54915 -8.30649,0.40542 -12.66307,8.59885 -19.36536,12.42757 -13.77252,7.86733 -33.1866,17.51191 -49.35044,18.23342 -3.8387,0.1712 -6.7129,-4.56211 -9.37033,-6.78537 -5.53162,-4.6277 -12.80799,-8.96241 -19.99005,-10.19805 0,-12.56625 1.74913,-24.47219 3.57823,-36.856656 0.87456,-5.917684 1.92342,-14.672695 4.90006,-19.897515 1.72539,-3.029434 9.05986,-4.096085 12.13645,-6.006835 8.50015,-5.27874 13.96555,-15.927189 13.01227,-25.94484 -2.88793,-30.346457 -45.49673,-35.7741259 -55.67916,-6.871579 -3.37019,9.566254 -0.79397,19.835829 5.57224,27.477202 2.34132,2.810358 7.84109,5.203795 8.78499,8.781758 0.77711,2.946159 -0.38667,6.348401 -0.42353,9.343342 -0.13939,11.338107 -2.00713,23.410223 -5.00689,34.357893 -0.92766,3.38519 -1.61857,10.28113 -4.18042,12.74178 -3.21277,3.08659 -12.70555,3.42768 -17.05214,5.29487 -6.81785,2.92792 -11.75352,9.93505 -18.1722,12.52188 -4.45278,1.79474 -13.85497,-3.66754 -18.05976,-5.28298 -14.78015,-5.67843 -29.05554,-12.64184 -42.47886,-21.102 -4.05236,-2.55373 -11.29813,-5.63782 -13.72566,-9.91069 -1.68792,-2.9704 -0.42667,-7.79612 -1.027,-11.129465 C 122.54777,91.690734 118.68719,83.824021 112.53969,78.102751 95.633473,62.368709 67.032027,65.999343 55.194599,86.165365 42.55634,107.69589 54.328194,135.96557 78.808919,141.82577 c 8.182488,1.95904 16.772513,0.59659 24.362861,-2.83796 2.89551,-1.30996 5.56193,-4.37719 8.74565,-4.84008 5.13432,-0.74651 12.03777,2.74488 16.86662,4.21977 14.83262,4.53024 28.69821,10.97266 42.47885,18.01044 3.95242,2.01836 14.95943,6.25188 16.64609,10.50539 0.70653,1.78162 -0.53098,4.33159 -0.86581,6.11383 -0.78024,4.1548 -0.88207,8.27463 -0.77836,12.49379 0.11927,4.86819 1.45677,9.76138 2.95477,14.36784 0.65843,2.02274 2.53437,4.69141 2.11644,6.87158 -0.69777,3.64568 -6.29748,7.49127 -8.82872,9.99252 -9.01301,8.90557 -21.20632,20.01754 -33.10853,24.84077 -3.68003,1.49112 -8.05098,-1.28874 -11.86909,-1.48989 -8.66193,-0.45727 -17.76928,5.84335 -21.30127,13.50827 -8.91994,19.35912 12.12834,40.0507 31.29629,30.37426 6.4999,-3.28149 11.44119,-10.04999 12.49067,-17.25579 0.46414,-3.18341 -0.68029,-7.03899 0.58908,-9.99502 4.66579,-10.86147 18.78565,-20.69595 27.52505,-28.19221 3.13594,-2.69055 7.26826,-7.05212 11.2444,-8.38271 3.79874,-1.27061 13.01415,7.82485 16.86661,9.63833 11.30936,5.32485 21.70107,4.77262 33.73321,3.82309 z"
         id="path457" /></g></g></svg>
